<svg version="1.2" xmlns="http://www.w3.org/2000/svg" viewBox="0 0 926 930" width="9260" height="9300"><style>.a{fill:#fefefe}</style><path fill-rule="evenodd" class="a" d="m773.5 374.6l-131.5 38.3c91.2-26.5 165.1 25.9 165.1 117 0 91.2-73.9 186.7-165.1 213.2l-641.6 186.8 118.5-364.7 165.1-48.1c-91.2 26.5-165.1-25.9-165.1-117 0-91.2 73.9-186.7 165.1-213.2l641.6-186.8-118.5 364.7zm-155.9 45.5c-0.5-0.3-0.7-0.4-0.9-0.5-13.5-0.6-27-1.2-40.5-2-16.2-1-32.3-1.9-48.4-3.4-18.7-1.7-31.2-12.8-37.4-33q-6.5-21.5-12.6-43.3c-4.9-17.5-9.5-35.1-14.4-53.3-0.5 1.3-0.7 1.7-0.8 2.1-3.9 16.8-7.8 33.6-11.8 50.4-5 20.7-9.9 41.3-15.4 61.9-3.3 12.2-8.4 23.9-16.5 34-7.8 9.7-16.8 17-26.3 23.1-20.9 13.6-41.9 26.8-62.9 40.2-6.9 4.3-13.7 8.7-21.3 13.6 1.1 0.1 1.5 0.2 1.9 0.2 16.9 0.8 33.9 1.5 50.8 2.6 14.2 1 28.4 2.1 42.3 3.9 9.9 1.4 18.2 6.1 24.2 14.8 5.1 7.2 8.5 15.9 11.1 25.1 7.6 26.9 14.9 54 22.3 80.9 0.6 2.5 1.4 4.8 2.3 7.9 3-12.9 5.8-25 8.7-37 6-24.7 11.7-49.3 18-74 4-15.3 10-30.2 21.2-41.5 6.7-6.7 13.8-13 21.2-18 21.9-14.5 44.1-28.3 66.1-42.4 6.3-4 12.5-8.1 19.1-12.3z"/></svg>